HIERARCHY
ROOT Hips
{
	OFFSET -3.958830 18.904000 13.208200
	CHANNELS 6 Xposition Yposition Zposition Zrotation Yrotation Xrotation 
	JOINT LHipJoint
	{
		OFFSET 0.000000 0.000000 0.000000
		CHANNELS 3 Zrotation Yrotation Xrotation
		JOINT LeftUpLeg
		{
			OFFSET 1.800000 -1.400000 0.085000
			CHANNELS 3 Zrotation Yrotation Xrotation
			JOINT LeftLeg
			{
				OFFSET 2.215000 -6.000000 0.000000
				CHANNELS 3 Zrotation Yrotation Xrotation
				JOINT LeftFoot
				{
					OFFSET 2.500000 -6.900000 0.000000
					CHANNELS 3 Zrotation Yrotation Xrotation
					JOINT LeftToeBase
					{
						OFFSET 0.200000 -0.500000 1.950000
						CHANNELS 3 Zrotation Yrotation Xrotation
						End Site
						{
							OFFSET 0.000000 0.000000 0.000000
						}
					}
				}
			}
		}
	}
	JOINT RHipJoint
	{
		OFFSET 0.000000 0.000000 0.000000
		CHANNELS 3 Zrotation Yrotation Xrotation
		JOINT RightUpLeg
		{
			OFFSET -1.800000 -1.400000 0.085000
			CHANNELS 3 Zrotation Yrotation Xrotation
			JOINT RightLeg
			{
				OFFSET -2.215000 -6.000000 0.000000
				CHANNELS 3 Zrotation Yrotation Xrotation
				JOINT RightFoot
				{
					OFFSET -2.500000 -6.900000 0.000000
					CHANNELS 3 Zrotation Yrotation Xrotation
					JOINT RightToeBase
					{
						OFFSET -0.200000 -0.500000 1.950000
						CHANNELS 3 Zrotation Yrotation Xrotation
						End Site
						{
							OFFSET 0.000000 0.000000 0.000000
						}
					}
				}
			}
		}
	}
	JOINT LowerBack
	{
		OFFSET 0.000000 0.000000 0.000000
		CHANNELS 3 Zrotation Yrotation Xrotation
		JOINT Spine
		{
			OFFSET -0.087000 1.940000 -0.288900
			CHANNELS 3 Zrotation Yrotation Xrotation
			JOINT Spine1
			{
				OFFSET 0.000000 1.950000 0.060000
				CHANNELS 3 Zrotation Yrotation Xrotation
				JOINT Neck
				{
					OFFSET 0.000000 0.000000 0.000000
					CHANNELS 3 Zrotation Yrotation Xrotation
					JOINT Neck1
					{
						OFFSET 0.000000 1.600000 0.340000
						CHANNELS 3 Zrotation Yrotation Xrotation
						JOINT Head
						{
							OFFSET 0.000000 1.667000 -0.240000
							CHANNELS 3 Zrotation Yrotation Xrotation
							End Site
							{
								OFFSET 0.000000 0.000000 0.000000
							}
						}
					}
				}
				JOINT LeftShoulder
				{
					OFFSET 0.000000 0.000000 0.000000
					CHANNELS 3 Zrotation Yrotation Xrotation
					JOINT LeftArm
					{
						OFFSET 2.700000 1.550000 -0.730000
						CHANNELS 3 Zrotation Yrotation Xrotation
						JOINT LeftForeArm
						{
							OFFSET 5.450000 0.000000 0.000000
							CHANNELS 3 Zrotation Yrotation Xrotation
							JOINT LeftHand
							{
								OFFSET 3.450000 0.000000 0.000000
								CHANNELS 3 Zrotation Yrotation Xrotation
								JOINT LeftHandIndex1
								{
									OFFSET 0.750000 0.000000 0.000000
									CHANNELS 3 Zrotation Yrotation Xrotation
									End Site
									{
										OFFSET 0.000000 0.000000 0.000000
									}
								}
							}
						}
					}
				}
				JOINT RightShoulder
				{
					OFFSET 0.000000 0.000000 0.000000
					CHANNELS 3 Zrotation Yrotation Xrotation
					JOINT RightArm
					{
						OFFSET -2.700000 1.550000 -0.730000
						CHANNELS 3 Zrotation Yrotation Xrotation
						JOINT RightForeArm
						{
							OFFSET -5.450000 0.000000 0.000000
							CHANNELS 3 Zrotation Yrotation Xrotation
							JOINT RightHand
							{
								OFFSET -3.450000 0.000000 0.000000
								CHANNELS 3 Zrotation Yrotation Xrotation
								JOINT RightHandIndex1
								{
									OFFSET -0.750000 0.000000 0.000000
									CHANNELS 3 Zrotation Yrotation Xrotation
									End Site
									{
										OFFSET 0.000000 0.000000 0.000000
									}
								}
							}
						}
					}
				}
			}
		}
	}
}
MOTION
Frames: 8
Frame Time: 0.016667
0.109680 16.967950 -1.404340 -5.938807 2.043814 13.894374 -15.007193 13.509748 3.652645 17.510263 -1.957092 -12.093123 -4.657750 3.771475 -2.382465 0.407188 3.764116 3.224577 -0.478370 -0.352510 -0.316300 18.199133 -10.143683 3.043713 -9.261575 1.144586 -12.628388 6.785839 -2.746990 0.115383 0.188402 -2.908381 3.274576 -0.283550 0.272560 -0.089210 -3.752149 -3.328679 -8.448756 17.316069 -1.759618 -0.024470 -6.696885 -0.191080 -16.693597 3.299576 -4.578510 -14.873438 -11.299548 3.929549 36.946537 0.923380 1.481730 12.153240 1.364307 2.063607 3.865166 -1.912544 10.184394 -1.478575 6.942299 2.225252 0.413524 -4.120023 2.769596 -0.181860 0.096720 -0.157170 -0.127330 -7.282705 4.492824 10.535642 5.731001 -14.419603 -1.830249 -4.779533 13.872498 0.213002 3.117732 -1.183143 -0.102570 -0.095130 0.119970 0.245210 
0.114370 16.960300 -1.385990 -6.000882 2.525651 13.957523 -15.016919 13.445005 3.656712 17.575868 -2.004855 -11.822607 -4.542241 3.693080 -2.925595 0.396837 3.799913 3.218497 -0.486780 -0.369530 -0.319270 18.207541 -10.108286 3.053368 -9.118639 1.074995 -12.099247 6.753937 -2.694295 -0.518150 0.178098 -2.958458 3.260766 -0.283260 0.276270 -0.102480 -3.756708 -3.289830 -8.439971 17.074847 -1.632550 -0.802116 -6.400853 -0.193926 -16.820563 3.204239 -4.626856 -14.741146 -11.321197 3.913372 36.610136 1.193630 1.287000 12.010740 0.632787 1.827796 3.870889 -1.249767 10.450504 -1.344792 7.232138 3.013819 0.436335 -4.123184 2.761505 -0.168780 0.092490 -0.168210 -0.133630 -6.350827 4.586280 10.439176 4.924229 -15.785510 -1.716685 -4.186091 14.935119 0.305376 3.088625 -1.201267 -0.122620 -0.085080 0.129620 0.235340 
0.119240 16.953540 -1.366680 -6.074716 2.869516 14.088466 -15.022835 13.397300 3.653193 17.610405 -2.052199 -11.651555 -4.361817 3.627283 -3.285610 0.401015 3.812155 3.222985 -0.499280 -0.380980 -0.332250 18.213215 -10.094633 3.065644 -8.944828 1.033116 -11.772290 6.662698 -2.640092 -0.990613 0.177447 -2.995773 3.256366 -0.285310 0.290550 -0.110610 -3.759703 -3.229378 -8.432255 16.812152 -1.512042 -1.519467 -6.092687 -0.192943 -17.159866 3.102382 -4.585101 -14.595947 -11.113523 3.934752 36.319199 1.402020 1.209330 12.176230 0.612873 1.954545 3.816499 -1.502852 10.341415 -1.361594 7.680031 2.960954 0.490698 -4.133982 2.762100 -0.177400 0.100200 -0.183590 -0.134700 -6.158357 4.378993 10.268696 4.808117 -16.051339 -1.710802 -2.959167 15.725645 0.389450 3.066674 -1.217373 -0.131560 -0.078960 0.136900 0.237530 
0.123450 16.947480 -1.354330 -6.129065 3.130855 14.132079 -15.027125 13.360976 3.647011 17.676363 -2.082115 -11.538320 -4.250799 3.597848 -3.448919 0.414878 3.819761 3.231340 -0.516490 -0.391330 -0.349060 18.214482 -10.113024 3.064950 -8.778941 0.994961 -11.628556 6.553366 -2.618769 -1.074717 0.188157 -3.015618 3.256165 -0.285110 0.308750 -0.119650 -3.757113 -3.131729 -8.417107 16.408609 -1.315440 -2.061653 -5.680126 -0.124122 -17.376206 2.986276 -4.534649 -14.475173 -10.910347 3.796521 36.020610 1.476410 0.990500 12.598260 0.871973 2.129735 3.755087 -2.454234 9.530807 -1.414326 8.706218 3.280385 0.647424 -4.160765 2.758508 -0.199950 0.112340 -0.199550 -0.132380 -6.199093 4.151811 10.143592 5.094342 -16.128233 -1.775290 -1.591769 16.157771 0.441005 3.059442 -1.228042 -0.138570 -0.072120 0.138910 0.247740 
0.126080 16.945770 -1.347840 -6.123729 3.367981 13.961122 -15.032407 13.347348 3.633195 17.697452 -2.084394 -11.352650 -4.104573 3.578047 -3.467344 0.431092 3.799338 3.233672 -0.508380 -0.378010 -0.336610 18.209332 -10.140446 3.065586 -8.780234 0.911669 -11.347899 6.568065 -2.647925 -1.066790 0.173945 -3.037886 3.239874 -0.285280 0.289230 -0.119900 -3.744490 -3.058193 -8.409681 15.867088 -1.175073 -2.489190 -5.279109 -0.102842 -17.283464 2.965958 -4.391455 -14.490454 -10.750920 3.595354 36.480129 1.411930 0.815360 12.635690 0.427928 1.775794 3.845983 -2.735190 9.366996 -1.381444 9.490856 3.645401 0.779915 -4.152482 2.773246 -0.203600 0.099840 -0.187070 -0.136710 -5.706058 4.314556 10.163902 5.125486 -16.353268 -1.754596 -1.180557 15.666987 0.399120 3.083334 -1.217182 -0.124530 -0.082950 0.128490 0.250230 
0.130200 16.947010 -1.345070 -6.219443 3.443666 13.588872 -15.045937 13.360045 3.628825 17.827766 -2.044265 -11.038118 -4.049734 3.595071 -3.409527 0.422023 3.800745 3.216792 -0.462840 -0.336030 -0.283480 18.195405 -10.147667 3.061107 -8.773169 0.798112 -10.916581 6.691522 -2.721182 -1.019433 0.132048 -3.051435 3.227812 -0.272390 0.234910 -0.115200 -3.707350 -3.068256 -8.414738 15.505840 -1.005157 -2.740214 -4.791509 0.000655 -16.935017 3.156927 -4.266401 -14.564547 -10.889904 3.397505 37.751538 0.747510 0.999300 11.657970 -0.792497 1.139994 3.923563 -2.336396 9.612618 -1.233013 9.750378 4.182624 0.833845 -4.112453 2.770511 -0.162570 0.066720 -0.142700 -0.139440 -4.790754 4.785801 10.306434 4.684170 -16.305004 -1.595678 -1.845179 13.589785 0.227536 3.124465 -1.158694 -0.109720 -0.088900 0.103790 0.230440 
0.129130 16.948010 -1.339940 -6.255434 3.353529 13.350496 -15.055426 13.355816 3.622116 17.940650 -2.010987 -10.768704 -4.108449 3.627669 -3.331427 0.427593 3.806312 3.208478 -0.430010 -0.306010 -0.235060 18.184731 -10.160921 3.065979 -8.820963 0.724593 -10.643732 6.785305 -2.759104 -1.069441 0.101148 -3.063475 3.219023 -0.263960 0.193590 -0.111530 -3.676217 -3.028105 -8.421267 15.044397 -0.821684 -3.059971 -4.448386 0.104388 -16.743279 3.323672 -3.993729 -14.627305 -10.667403 3.101062 38.895483 -0.030660 1.231660 11.186610 -1.778725 0.615608 3.974515 -1.787841 9.840456 -1.109995 9.958101 4.568222 0.885406 -4.084601 2.762877 -0.139680 0.045560 -0.107210 -0.140330 -4.105865 5.069484 10.438604 4.556322 -16.025125 -1.478510 -2.699655 11.238054 0.063270 3.181555 -1.107956 -0.097430 -0.094300 0.076210 0.217150 
0.128670 16.950890 -1.335040 -6.147585 3.167989 13.259743 -15.064106 13.365970 3.613347 17.818296 -1.983942 -10.611374 -4.104741 3.633883 -3.242958 0.420504 3.796357 3.203509 -0.423740 -0.306860 -0.206680 18.167820 -10.187659 3.075168 -9.041460 0.706861 -10.592149 6.852820 -2.802974 -1.036322 0.085722 -3.068795 3.205916 -0.269990 0.166370 -0.102460 -3.635576 -2.984260 -8.434527 14.447080 -0.662370 -3.367351 -4.220332 0.206676 -16.893201 3.505764 -3.646454 -14.717798 -10.258142 2.868790 40.025835 -0.859330 1.595820 11.053590 -2.644689 0.193145 4.008586 -1.163437 10.245039 -0.985022 10.208750 4.706595 0.922130 -4.075340 2.755236 -0.120930 0.035290 -0.084700 -0.153440 -3.561795 5.219445 10.577281 4.859058 -15.584949 -1.417801 -4.358883 8.648466 -0.018657 3.245743 -1.059954 -0.091690 -0.103310 0.073310 0.202960 
